<?xml version="1.0" standalone="no"?>
<!DOCTYPE svg PUBLIC "-//W3C//DTD SVG 20010904//EN"
 "http://www.w3.org/TR/2001/REC-SVG-20010904/DTD/svg10.dtd">
<svg version="1.0" xmlns="http://www.w3.org/2000/svg"
 width="800.000000pt" height="800.000000pt" viewBox="0 0 800.000000 800.000000"
 preserveAspectRatio="xMidYMid meet">

<g transform="translate(0.000000,800.000000) scale(0.100000,-0.100000)"
fill="#000000" stroke="none">
<path d="M3843 7720 c-268 -28 -526 -123 -763 -281 -135 -89 -334 -291 -429
-433 -118 -177 -215 -408 -251 -596 l-10 -55 -173 -34 c-202 -40 -508 -114
-709 -171 -253 -73 -623 -199 -670 -229 -55 -35 -93 -83 -119 -151 -56 -148
24 -322 174 -379 92 -34 132 -29 349 44 740 251 1436 390 2233 446 94 7 330
13 525 13 513 0 800 -23 1370 -109 399 -61 926 -193 1388 -350 217 -73 257
-78 349 -44 111 42 193 160 193 279 0 100 -60 206 -146 256 -51 30 -383 143
-628 214 -222 64 -500 132 -728 178 l-181 37 -14 70 c-132 651 -676 1172
-1337 1280 -114 19 -319 26 -423 15z m412 -65 c652 -105 1170 -605 1300 -1255
10 -47 18 -86 19 -87 1 -1 91 -20 201 -42 240 -48 508 -114 740 -181 242 -70
563 -178 612 -206 139 -80 163 -275 48 -389 -45 -45 -115 -75 -176 -75 -20 0
-124 29 -231 65 -741 251 -1434 390 -2233 447 -93 6 -334 12 -535 12 -523 0
-809 -23 -1380 -109 -399 -61 -927 -194 -1388 -350 -107 -36 -211 -65 -231
-65 -186 0 -306 200 -219 367 41 81 81 103 350 192 405 133 735 221 1114 296
l191 38 12 76 c31 185 123 407 243 588 93 141 284 334 418 422 350 233 742
320 1145 256z"/>
<path d="M3910 7173 c-346 -33 -657 -229 -836 -526 -42 -69 -118 -247 -109
-255 2 -2 75 3 162 12 556 55 1198 55 1751 0 85 -9 156 -13 159 -10 8 8 -27
104 -65 181 -77 156 -220 320 -360 414 -201 135 -473 207 -702 184z m197 -54
c242 -27 443 -120 615 -287 105 -101 212 -260 243 -361 l7 -24 -62 6 c-518 55
-1304 55 -1807 1 -73 -8 -73 -7 -39 69 145 328 482 564 856 600 71 7 93 7 187
-4z"/>
<path d="M1590 4961 c-91 -28 -176 -107 -204 -188 -9 -26 -16 -73 -16 -106 0
-92 218 -2679 235 -2792 64 -420 284 -811 610 -1083 267 -224 580 -362 924
-407 154 -21 1568 -21 1722 0 798 106 1429 728 1538 1515 15 107 231 2696 231
2767 0 79 -23 142 -72 198 -53 60 -125 96 -204 103 -85 6 -150 -17 -218 -79
-100 -91 -84 23 -212 -1509 -62 -745 -120 -1394 -129 -1442 -56 -313 -241
-594 -509 -773 -120 -79 -231 -126 -396 -168 -82 -20 -111 -21 -841 -24 -833
-4 -867 -2 -1050 56 -412 133 -718 484 -794 910 -9 47 -67 696 -129 1441 -128
1532 -112 1418 -212 1509 -30 28 -74 56 -100 65 -49 17 -131 20 -174 7z m152
-53 c54 -16 132 -88 153 -140 14 -34 42 -333 131 -1398 62 -745 120 -1394 129
-1441 78 -442 404 -812 834 -950 184 -59 216 -60 1060 -56 677 3 774 6 836 20
243 59 428 156 594 313 189 177 322 421 366 672 9 48 67 697 129 1442 89 1066
117 1364 131 1398 23 56 101 125 160 142 92 26 194 -6 257 -80 40 -46 58 -97
58 -165 0 -63 -217 -2659 -231 -2755 -107 -773 -715 -1371 -1498 -1475 -154
-21 -1548 -21 -1702 0 -775 103 -1377 688 -1494 1450 -16 104 -235 2696 -235
2780 0 68 18 119 58 165 66 78 166 108 264 78z"/>
<path d="M3925 3957 c-68 -23 -101 -44 -148 -97 -81 -90 -77 -32 -77 -1026 0
-878 0 -884 21 -941 42 -111 160 -193 279 -193 119 0 237 82 279 193 21 57 21
63 21 941 0 999 5 936 -81 1030 -78 85 -200 124 -294 93z m146 -53 c67 -20
148 -97 167 -160 9 -31 12 -252 12 -911 0 -979 4 -930 -75 -1008 -98 -98 -252
-98 -350 0 -79 78 -75 29 -75 1008 0 649 3 880 12 910 18 61 92 135 158 157
68 24 82 24 151 4z"/>
</g>
</svg>
