<?xml version="1.0" encoding="UTF-8"?>
<svg version="1.1" xmlns="http://www.w3.org/2000/svg" width="500" height="500">
<path d="M0 0 C165 0 330 0 500 0 C500 165 500 330 500 500 C335 500 170 500 0 500 C0 335 0 170 0 0 Z " fill="#FF0000" transform="translate(0,0)"/>
<path d="M0 0 C10.86818045 0 20.89046785 0.15594697 31.55761719 1.54418945 C33.63082237 1.81325564 35.70560321 2.06499511 37.78125 2.31445312 C45.74429435 3.29691998 53.56207461 4.63908982 61.421875 6.2746582 C65.86513931 7.17537724 70.32590394 7.90779378 74.80029297 8.63452148 C104.80146392 13.53236293 135.54541609 19.63068246 164.2578125 29.7265625 C167.53709053 30.84247548 170.82412343 31.85784008 174.140625 32.85546875 C202.70513014 41.59812386 242.34783721 54.64389577 258.88671875 81.8671875 C261.33327124 86.554267 263 90.61969113 263 96 C257.06 96 251.12 96 245 96 C244.01 93.69 243.02 91.38 242 89 C218.68840827 58.37362728 142.98656452 53.73673986 106.86254883 47.95263672 C105.42786688 47.72251928 103.99321423 47.49221912 102.55859375 47.26171875 C101.87397568 47.15185638 101.1893576 47.04199402 100.48399353 46.92880249 C97.10861287 46.37793386 93.77481761 45.76230082 90.44921875 44.96484375 C84.52995106 43.57527464 78.486232 42.90324595 72.4609375 42.14013672 C70.37151491 41.87455702 68.28343729 41.5997964 66.1953125 41.32421875 C64.84642498 41.15049096 63.49746877 40.97729549 62.1484375 40.8046875 C60.94364746 40.64983887 59.73885742 40.49499023 58.49755859 40.33544922 C54.97525293 39.99762652 51.53612241 39.94175266 48 40 C48.29543701 40.55421631 48.59087402 41.10843262 48.89526367 41.67944336 C66.29341112 74.63012622 78.61403444 109.98753215 88 146 C93.5980033 146.1759172 98.75776513 145.51850342 104.26171875 144.53125 C105.5993502 144.2975042 105.5993502 144.2975042 106.96400452 144.05903625 C109.87327625 143.54712117 112.78049922 143.02464873 115.6875 142.5 C116.68309937 142.32181732 117.67869873 142.14363464 118.70446777 141.96005249 C132.44160142 139.49418392 146.12402942 136.83410364 159.75 133.8125 C160.81400528 133.57877686 160.81400528 133.57877686 161.89950562 133.34033203 C170.52435038 131.43392676 178.99905046 129.22290421 187.43133545 126.5839386 C190.82295771 125.54131728 193.41026606 125 197 125 C197 133.25 197 141.5 197 150 C178.43822987 158.02671141 159.60379268 164.2085184 140.01806641 169.22265625 C137.26080629 169.93282582 134.51028403 170.66325108 131.76171875 171.40625 C123.89572316 173.52864438 116.01009532 175.51754491 108.0625 177.3125 C106.93424805 177.57003052 106.93424805 177.57003052 105.78320312 177.83276367 C102.40813133 178.57678536 99.47671888 179 96 179 C96.41511841 180.89999756 96.41511841 180.89999756 96.83862305 182.83837891 C106.55818138 227.4305618 116 272.17619674 116 318 C102.14 318 88.28 318 74 318 C73.731875 313.276875 73.46375 308.55375 73.1875 303.6875 C71.75341543 280.08470765 68.80874935 256.7357188 65.47314453 233.33105469 C65.03628843 230.25547955 64.60810329 227.17886216 64.18359375 224.1015625 C62.9464855 215.19676984 61.62120662 206.32962719 59.91381836 197.50097656 C59.18403626 193.61207719 58.87163129 189.95497889 59 186 C58.34 186.33 57.68 186.66 57 187 C52.3556509 187.81156761 47.67462566 188.38997715 43 189 C42.31291962 189.09059692 41.62583923 189.18119385 40.91793823 189.27453613 C27.26086174 191.05215726 13.78352142 191.68850799 0 192 C0 180.45 0 168.9 0 157 C5.6615625 156.566875 5.6615625 156.566875 11.4375 156.125 C20.38991613 155.42828672 29.28567449 154.57337051 38.18359375 153.3671875 C42.80472432 152.92257514 47.36216439 152.92575692 52 153 C48.49320654 136.26849828 44.8556408 119.58487638 40.74121094 102.99072266 C40.25086573 101.01222172 39.7644729 99.03273665 39.28222656 97.05224609 C34.47214002 77.35332514 28.53517461 58.28856013 19.46875 40.10546875 C18 37 18 37 18 35 C12.06 35 6.12 35 0 35 C0 23.45 0 11.9 0 0 Z " fill="#FFCC00" transform="translate(119,91)"/>
</svg>
